<svg width="17" height="17" viewBox="0 0 17 17" fill="none" xmlns="http://www.w3.org/2000/svg">
<g id="magic wand">
<path id="Vector" d="M5.45887 4.31619C5.43991 4.5416 5.11191 4.59859 5.00642 4.39481L4.43834 3.29767C4.4016 3.22658 4.32675 3.17907 4.24209 3.17292L2.93485 3.07809C2.692 3.06049 2.63061 2.75601 2.85016 2.65807L4.03196 2.13074C4.10849 2.09658 4.15977 2.02715 4.16632 1.94854L4.26849 0.73494C4.28745 0.509529 4.61545 0.452535 4.72095 0.656321L5.28902 1.75346C5.32576 1.82455 5.40052 1.87207 5.48527 1.87821L6.79252 1.97303C7.03536 1.99064 7.09675 2.29511 6.8772 2.39306L5.6954 2.92039C5.61878 2.95457 5.56759 3.02397 5.56104 3.10259L5.45887 4.31619Z" fill="white"/>
<path id="Vector_2" d="M1.70605 5.1442C1.6744 5.25336 1.50755 5.25336 1.4759 5.1442L1.30543 4.55649C1.29442 4.51841 1.26233 4.48867 1.22134 4.47842L0.58827 4.32018C0.470666 4.29079 0.470666 4.13591 0.58827 4.10652L1.22134 3.94828C1.26233 3.93802 1.29442 3.90828 1.30543 3.87021L1.4759 3.28249C1.50755 3.17333 1.6744 3.17333 1.70605 3.28249L1.87652 3.87021C1.88754 3.90828 1.91957 3.93802 1.96061 3.94828L2.59368 4.10652C2.71129 4.13591 2.71129 4.29079 2.59368 4.32018L1.96061 4.47842C1.91957 4.48867 1.88754 4.51841 1.87652 4.55649L1.70605 5.1442Z" fill="white"/>
<path id="Vector_3" d="M3.88769 8.51993C3.85604 8.6291 3.68919 8.6291 3.65754 8.51993L3.48707 7.93222C3.47606 7.89414 3.44398 7.8644 3.40298 7.85415L2.76991 7.69591C2.65231 7.66652 2.65231 7.51164 2.76991 7.48225L3.40298 7.32401C3.44398 7.31375 3.47606 7.28402 3.48707 7.24594L3.65754 6.65822C3.68919 6.54906 3.85604 6.54906 3.88769 6.65822L4.05816 7.24594C4.06918 7.28402 4.10121 7.31375 4.14226 7.32401L4.77532 7.48225C4.89293 7.51164 4.89293 7.66652 4.77532 7.69591L4.14226 7.85415C4.10121 7.8644 4.06918 7.89414 4.05816 7.93222L3.88769 8.51993Z" fill="white"/>
<path id="Vector_4" d="M2.03133 7.19688C2.01023 7.26966 1.899 7.26966 1.87789 7.19688L1.76425 6.80507C1.75691 6.77969 1.73552 6.75986 1.70819 6.75303L1.28614 6.64753C1.20774 6.62794 1.20774 6.52469 1.28614 6.50509L1.70819 6.3996C1.73552 6.39276 1.75691 6.37294 1.76425 6.34755L1.87789 5.95574C1.899 5.88297 2.01023 5.88297 2.03133 5.95574L2.14498 6.34755C2.15232 6.37294 2.17367 6.39276 2.20104 6.3996L2.62308 6.50509C2.70149 6.52469 2.70149 6.62794 2.62308 6.64753L2.20104 6.75303C2.17367 6.75986 2.15232 6.77969 2.14498 6.80507L2.03133 7.19688Z" fill="white"/>
<path id="Vector_5" d="M7.12215 5.84654C7.10105 5.91932 6.98982 5.91932 6.96871 5.84654L6.85507 5.45473C6.84773 5.42935 6.82634 5.40952 6.79901 5.40268L6.37696 5.29719C6.29856 5.2776 6.29856 5.17434 6.37696 5.15475L6.79901 5.04926C6.82634 5.04242 6.84773 5.0226 6.85507 4.99721L6.96871 4.6054C6.98982 4.53263 7.10105 4.53263 7.12215 4.6054L7.2358 4.99721C7.24314 5.0226 7.2645 5.04242 7.29186 5.04926L7.7139 5.15475C7.79231 5.17434 7.79231 5.2776 7.7139 5.29719L7.29186 5.40268C7.2645 5.40952 7.24314 5.42935 7.2358 5.45473L7.12215 5.84654Z" fill="white"/>
<path id="Vector 1" d="M14.3182 14.0032L13.5909 14.6783M4.15777 5.0424L15.9624 15.0878C16.2555 15.3372 16.2654 15.7631 15.9843 16.024V16.024C15.7043 16.284 15.2496 16.2779 14.9805 16.0081C10.9047 11.9232 3.72842 4.70759 4.15777 5.0424Z" stroke="white"/>
</g>
</svg>
